<svg 
 xmlns="http://www.w3.org/2000/svg"
 xmlns:xlink="http://www.w3.org/1999/xlink"
 width="20px" height="20px">
<path fill-rule="evenodd"  opacity="0.702" fill="rgb(227, 80, 40)"
 d="M12.828,9.999 L18.485,15.656 C19.266,16.437 19.266,17.703 18.485,18.484 C17.704,19.265 16.438,19.265 15.657,18.484 L10.000,12.827 L4.343,18.484 C3.562,19.265 2.296,19.265 1.515,18.484 C0.734,17.703 0.734,16.437 1.515,15.656 L7.172,9.999 L1.515,4.342 C0.734,3.561 0.734,2.294 1.515,1.514 C2.296,0.733 3.562,0.733 4.343,1.514 L10.000,7.171 L15.657,1.514 C16.438,0.733 17.704,0.733 18.485,1.514 C19.266,2.294 19.266,3.561 18.485,4.342 L12.828,9.999 Z"/>
</svg>